<svg width="60" height="60" viewBox="0 0 60 60" fill="none" xmlns="http://www.w3.org/2000/svg">
<path d="M30 60V55.5C44.055 55.5 55.5 44.055 55.5 30C55.5 15.945 44.055 4.5 30 4.5V0C46.545 0 60 13.455 60 30C60 46.545 46.545 60 30 60Z" fill="#6A11EA"/>
<path d="M30 41.25V36.75C46.5 36.75 55.5 32.295 55.5 30H60C60 37.38 44.91 41.25 30 41.25Z" fill="#DD45D3"/>
<path d="M30 60C13.455 60 0 46.545 0 30C0 13.455 13.455 0 30 0V4.5C15.945 4.5 4.5 15.945 4.5 30C4.5 44.055 15.945 55.5 30 55.5V60Z" fill="black"/>
<path d="M4.5 30H0C0 22.62 15.09 18.75 30 18.75V23.25C13.5 23.25 4.5 27.705 4.5 30Z" fill="#DD45D3"/>
<path d="M23.25 30H18.75C18.75 15.09 22.62 0 30 0V4.5C27.705 4.5 23.25 13.5 23.25 30Z" fill="#FD9D52"/>
<path d="M30 60V55.5C32.295 55.5 36.75 46.5 36.75 30H41.25C41.25 44.91 37.38 60 30 60Z" fill="#FD9D52"/>
<path d="M41.25 30H36.75C36.75 13.5 32.295 4.5 30 4.5V0C37.38 0 41.25 15.09 41.25 30Z" fill="#FD9D52"/>
<path d="M30 60C22.62 60 18.75 44.91 18.75 30H23.25C23.25 46.5 27.705 55.5 30 55.5V60Z" fill="#FD9D52"/>
<path d="M30 41.25C15.09 41.25 0 37.38 0 30H4.5C4.5 32.295 13.5 36.75 30 36.75V41.25Z" fill="#DD45D3"/>
<path d="M60 30H55.5C55.5 27.705 46.5 23.25 30 23.25V18.75C44.91 18.75 60 22.62 60 30Z" fill="#DD45D3"/>
<path d="M30 4.5C31.2426 4.5 32.25 3.49264 32.25 2.25C32.25 1.00736 31.2426 0 30 0C28.7574 0 27.75 1.00736 27.75 2.25C27.75 3.49264 28.7574 4.5 30 4.5Z" fill="#FD9D52"/>
<path d="M30 23.25C31.2426 23.25 32.25 22.2426 32.25 21C32.25 19.7574 31.2426 18.75 30 18.75C28.7574 18.75 27.75 19.7574 27.75 21C27.75 22.2426 28.7574 23.25 30 23.25Z" fill="#DD45D3"/>
<path d="M30 41.25C31.2426 41.25 32.25 40.2426 32.25 39C32.25 37.7574 31.2426 36.75 30 36.75C28.7574 36.75 27.75 37.7574 27.75 39C27.75 40.2426 28.7574 41.25 30 41.25Z" fill="#DD45D3"/>
<path d="M30 60C31.2426 60 32.25 58.9926 32.25 57.75C32.25 56.5074 31.2426 55.5 30 55.5C28.7574 55.5 27.75 56.5074 27.75 57.75C27.75 58.9926 28.7574 60 30 60Z" fill="#FD9D52"/>
<path d="M2.25 32.25C3.49264 32.25 4.5 31.2426 4.5 30C4.5 28.7574 3.49264 27.75 2.25 27.75C1.00736 27.75 0 28.7574 0 30C0 31.2426 1.00736 32.25 2.25 32.25Z" fill="#DD45D3"/>
<path d="M21 32.25C22.2426 32.25 23.25 31.2426 23.25 30C23.25 28.7574 22.2426 27.75 21 27.75C19.7574 27.75 18.75 28.7574 18.75 30C18.75 31.2426 19.7574 32.25 21 32.25Z" fill="#FD9D52"/>
<path d="M39 32.25C40.2426 32.25 41.25 31.2426 41.25 30C41.25 28.7574 40.2426 27.75 39 27.75C37.7574 27.75 36.75 28.7574 36.75 30C36.75 31.2426 37.7574 32.25 39 32.25Z" fill="#FD9D52"/>
<path d="M57.75 32.25C58.9926 32.25 60 31.2426 60 30C60 28.7574 58.9926 27.75 57.75 27.75C56.5074 27.75 55.5 28.7574 55.5 30C55.5 31.2426 56.5074 32.25 57.75 32.25Z" fill="#DD45D3"/>
</svg>
