<svg width="54" height="60" viewBox="0 0 54 60" fill="none" xmlns="http://www.w3.org/2000/svg">
<g clip-path="url(#clip0)">
<path d="M28.2897 6H25.2897V30H28.2897V6Z" fill="#6A11EA"/>
<path d="M7.5 18H4.5V42H7.5V18Z" fill="#6A11EA"/>
<path d="M49.0655 18H46.0655V42H49.0655V18Z" fill="#6A11EA"/>
<path d="M26.0379 4.69922L5.25391 16.6992L6.75391 19.2972L27.5379 7.29722L26.0379 4.69922Z" fill="#DD45D3"/>
<path d="M6.7507 16.6994L5.2507 19.2974L26.0347 31.2974L27.5347 28.6994L6.7507 16.6994Z" fill="#FD9D52"/>
<path d="M27.5309 4.70815L26.0309 7.30615L46.8149 19.3062L48.3149 16.7082L27.5309 4.70815Z" fill="#FD9D52"/>
<path d="M46.8118 16.7051L26.0278 28.7051L27.5278 31.3031L48.3118 19.3031L46.8118 16.7051Z" fill="#DD45D3"/>
<path d="M28.2897 30.0146H25.2897V54.0146H28.2897V30.0146Z" fill="#6A11EA"/>
<path d="M26.0379 28.7148L5.25391 40.7148L6.75391 43.3128L27.5379 31.3128L26.0379 28.7148Z" fill="#DD45D3"/>
<path d="M6.75037 40.7145L5.25037 43.3125L26.0344 55.3125L27.5344 52.7145L6.75037 40.7145Z" fill="#FD9D52"/>
<path d="M27.5305 28.7233L26.0305 31.3213L46.8145 43.3213L48.3145 40.7233L27.5305 28.7233Z" fill="#FD9D52"/>
<path d="M46.8114 40.7197L26.0274 52.7197L27.5274 55.3177L48.3114 43.3177L46.8114 40.7197Z" fill="#DD45D3"/>
<path d="M26.7897 12C30.1034 12 32.7897 9.31371 32.7897 6C32.7897 2.68629 30.1034 0 26.7897 0C23.476 0 20.7897 2.68629 20.7897 6C20.7897 9.31371 23.476 12 26.7897 12Z" fill="black"/>
<path d="M6 24C9.31371 24 12 21.3137 12 18C12 14.6863 9.31371 12 6 12C2.68629 12 0 14.6863 0 18C0 21.3137 2.68629 24 6 24Z" fill="black"/>
<path d="M6 48.0146C9.31371 48.0146 12 45.3284 12 42.0146C12 38.7009 9.31371 36.0146 6 36.0146C2.68629 36.0146 0 38.7009 0 42.0146C0 45.3284 2.68629 48.0146 6 48.0146Z" fill="black"/>
<path d="M47.5655 24C50.8792 24 53.5655 21.3137 53.5655 18C53.5655 14.6863 50.8792 12 47.5655 12C44.2518 12 41.5655 14.6863 41.5655 18C41.5655 21.3137 44.2518 24 47.5655 24Z" fill="black"/>
<path d="M47.5655 48.0146C50.8792 48.0146 53.5655 45.3284 53.5655 42.0146C53.5655 38.7009 50.8792 36.0146 47.5655 36.0146C44.2518 36.0146 41.5655 38.7009 41.5655 42.0146C41.5655 45.3284 44.2518 48.0146 47.5655 48.0146Z" fill="black"/>
<path d="M26.7897 60C30.1034 60 32.7897 57.3137 32.7897 54C32.7897 50.6863 30.1034 48 26.7897 48C23.476 48 20.7897 50.6863 20.7897 54C20.7897 57.3137 23.476 60 26.7897 60Z" fill="black"/>
<path d="M26.7897 36C30.1034 36 32.7897 33.3137 32.7897 30C32.7897 26.6863 30.1034 24 26.7897 24C23.476 24 20.7897 26.6863 20.7897 30C20.7897 33.3137 23.476 36 26.7897 36Z" fill="black"/>
</g>
<defs>
<clipPath id="clip0">
<rect width="53.565" height="60" fill="white"/>
</clipPath>
</defs>
</svg>
