<svg width="49" height="60" viewBox="0 0 49 60" fill="none" xmlns="http://www.w3.org/2000/svg">
<path d="M0 59.9961H48V56.9961C48 55.3461 46.65 53.9961 45 53.9961H3C1.35 53.9961 0 55.3461 0 56.9961V59.9961Z" fill="black"/>
<path d="M46.8595 17.1413L25.8595 0.64125C24.7645 -0.21375 23.2345 -0.21375 22.1545 0.64125L1.15454 17.1413C0.149535 17.9363 -0.240464 19.2712 0.179536 20.4862C0.584535 21.6863 1.72454 22.4963 2.99954 22.4963H44.9995C46.2745 22.4963 47.4145 21.6863 47.8345 20.4713C48.2545 19.2712 47.8645 17.9213 46.8595 17.1413ZM11.6695 16.4963L23.9995 6.80625L36.3295 16.4963H11.6695Z" fill="black"/>
<path d="M10.5 25.4961C8.85 25.4961 7.5 26.8461 7.5 28.4961V50.9961H13.5V28.4961C13.5 26.8461 12.165 25.4961 10.5 25.4961Z" fill="#6A11EA"/>
<path d="M24 25.4961C22.35 25.4961 21 26.8461 21 28.4961V50.9961H27V28.4961C27 26.8461 25.665 25.4961 24 25.4961Z" fill="#DD45D3"/>
<path d="M37.5 25.4961C35.85 25.4961 34.5 26.8461 34.5 28.4961V50.9961H40.5V28.4961C40.5 26.8461 39.165 25.4961 37.5 25.4961Z" fill="#FD9D52"/>
</svg>
