<svg width="118" height="120" viewBox="0 0 118 120" fill="none" xmlns="http://www.w3.org/2000/svg">
<g clip-path="url(#clip0)">
<path d="M44.6267 0.637774L36.2778 15.1144C36.048 15.4973 36.048 16.008 36.2778 16.391L44.6267 30.8676C45.1118 31.7101 46.3374 31.7101 46.848 30.8676L55.197 16.391C55.4267 16.008 55.4267 15.4973 55.197 15.1144L46.848 0.637774C46.3629 -0.204779 45.1374 -0.204779 44.6267 0.637774Z" fill="#FD9D52"/>
<path d="M72.4065 0.637774L80.7555 15.1144C80.9852 15.4973 80.9852 16.008 80.7555 16.391L72.4065 30.8676C71.9214 31.7101 70.6959 31.7101 70.1852 30.8676L61.8363 16.391C61.6065 16.008 61.6065 15.4973 61.8363 15.1144L70.1852 0.637774C70.6704 -0.204779 71.9214 -0.204779 72.4065 0.637774Z" fill="#FD9D52"/>
<path d="M102.994 18.3057H86.2957C85.8361 18.3057 85.4276 18.561 85.1978 18.944L76.8489 33.4206C76.3638 34.2631 76.9765 35.3355 77.9467 35.3355H94.6446C95.1042 35.3355 95.5127 35.0801 95.7425 34.6972L104.091 20.2206C104.577 19.3525 103.964 18.3057 102.994 18.3057Z" fill="#FD9D52"/>
<path d="M57.4193 22.7741L49.0703 37.2507C48.8406 37.6337 48.8406 38.1443 49.0703 38.5273L57.4193 53.0039C57.9044 53.8464 59.1299 53.8464 59.6406 53.0039L67.9895 38.5273C68.2193 38.1443 68.2193 37.6337 67.9895 37.2507L59.6406 22.7741C59.1299 21.906 57.9044 21.906 57.4193 22.7741Z" fill="#DD45D3"/>
<path d="M90.2012 40.416H73.5033C73.0438 40.416 72.6352 40.6713 72.4055 41.0543L64.0565 55.5309C63.5714 56.3735 64.1842 57.4458 65.1544 57.4458H81.8523C82.3118 57.4458 82.7204 57.1905 82.9501 56.8075L91.2991 42.3309C91.8097 41.4884 91.1969 40.416 90.2012 40.416Z" fill="#DD45D3"/>
<path d="M116.857 42.3309L108.508 56.8075C108.278 57.1905 107.869 57.4458 107.41 57.4458H90.7119C89.7417 57.4458 89.1034 56.3735 89.614 55.5309L97.963 41.0543C98.1928 40.6713 98.6013 40.416 99.0609 40.416H115.759C116.754 40.416 117.367 41.4884 116.857 42.3309Z" fill="#DD45D3"/>
<path d="M25.7342 42.3314L34.0831 56.808C34.3129 57.191 34.7214 57.4463 35.181 57.4463H51.8789C52.8491 57.4463 53.4874 56.374 52.9767 55.5314L44.6278 41.0548C44.398 40.6718 43.9895 40.4165 43.5299 40.4165H26.8321C25.8363 40.4165 25.2236 41.4888 25.7342 42.3314Z" fill="#DD45D3"/>
<path d="M0.177613 42.3314L8.52655 56.808C8.75634 57.191 9.16485 57.4463 9.62442 57.4463H26.3223C27.2925 57.4463 27.9308 56.374 27.4202 55.5314L19.0712 41.0548C18.8414 40.6718 18.4329 40.4165 17.9734 40.4165H1.27549C0.305272 40.4165 -0.307493 41.4888 0.177613 42.3314Z" fill="#DD45D3"/>
<path d="M59.6137 97.225L67.9626 82.7484C68.1924 82.3654 68.1924 81.8548 67.9626 81.4718L59.6137 66.9952C59.1285 66.1526 57.903 66.1526 57.3924 66.9952L49.0434 81.4718C48.8136 81.8548 48.8136 82.3654 49.0434 82.7484L57.3924 97.225C57.903 98.0931 59.1285 98.0931 59.6137 97.225Z" fill="#6A11EA"/>
<path d="M26.8321 79.5825H43.5299C43.9895 79.5825 44.398 79.3272 44.6278 78.9442L52.9767 64.4676C53.4619 63.6251 52.8491 62.5527 51.8789 62.5527H35.181C34.7214 62.5527 34.3129 62.8081 34.0831 63.191L25.7342 77.6676C25.2236 78.5102 25.8363 79.5825 26.8321 79.5825Z" fill="#6A11EA"/>
<path d="M0.177613 77.6676L8.52655 63.191C8.75634 62.8081 9.16485 62.5527 9.62442 62.5527H26.3223C27.2925 62.5527 27.9308 63.6251 27.4202 64.4676L19.0712 78.9442C18.8414 79.3272 18.4329 79.5825 17.9734 79.5825H1.27549C0.305272 79.5825 -0.307493 78.5102 0.177613 77.6676Z" fill="#6A11EA"/>
<path d="M91.3259 77.6676L82.9769 63.191C82.7471 62.8081 82.3386 62.5527 81.8791 62.5527H65.1812C64.211 62.5527 63.5727 63.6251 64.0833 64.4676L72.4323 78.9442C72.662 79.3272 73.0705 79.5825 73.5301 79.5825H90.228C91.1982 79.5825 91.811 78.5102 91.3259 77.6676Z" fill="#6A11EA"/>
<path d="M116.857 77.6676L108.508 63.191C108.278 62.8081 107.869 62.5527 107.41 62.5527H90.7119C89.7417 62.5527 89.1034 63.6251 89.614 64.4676L97.963 78.9442C98.1928 79.3272 98.6013 79.5825 99.0609 79.5825H115.759C116.754 79.5825 117.367 78.5102 116.857 77.6676Z" fill="#6A11EA"/>
<path d="M14.0414 18.3057H30.7393C31.1989 18.3057 31.6074 18.561 31.8372 18.944L40.1861 33.4206C40.6712 34.2631 40.0585 35.3355 39.0883 35.3355H22.3904C21.9308 35.3355 21.5223 35.0801 21.2925 34.6972L12.9436 20.2206C12.4585 19.3525 13.0712 18.3057 14.0414 18.3057Z" fill="#FD9D52"/>
<path d="M72.4065 119.361L80.7555 104.884C80.9852 104.501 80.9852 103.991 80.7555 103.608L72.4065 89.1309C71.9214 88.2884 70.6959 88.2884 70.1852 89.1309L61.8363 103.608C61.6065 103.991 61.6065 104.501 61.8363 104.884L70.1852 119.361C70.6704 120.203 71.9214 120.203 72.4065 119.361Z" fill="black"/>
<path d="M44.6271 119.361L36.2781 104.884C36.0484 104.501 36.0484 103.991 36.2781 103.608L44.6271 89.1309C45.1122 88.2884 46.3377 88.2884 46.8484 89.1309L55.1973 103.608C55.4271 103.991 55.4271 104.501 55.1973 104.884L46.8484 119.361C46.3632 120.203 45.1377 120.203 44.6271 119.361Z" fill="black"/>
<path d="M14.0414 101.693H30.7393C31.1989 101.693 31.6074 101.438 31.8372 101.055L40.1861 86.578C40.6712 85.7354 40.0585 84.6631 39.0883 84.6631H22.3904C21.9308 84.6631 21.5223 84.9184 21.2925 85.3014L12.9436 99.778C12.4585 100.646 13.0712 101.693 14.0414 101.693Z" fill="black"/>
<path d="M102.994 101.693H86.2957C85.8361 101.693 85.4276 101.438 85.1978 101.055L76.8489 86.578C76.3638 85.7354 76.9765 84.6631 77.9467 84.6631H94.6446C95.1042 84.6631 95.5127 84.9184 95.7425 85.3014L104.091 99.778C104.577 100.646 103.964 101.693 102.994 101.693Z" fill="black"/>
</g>
<defs>
<clipPath id="clip0">
<rect width="117.038" height="120" fill="white"/>
</clipPath>
</defs>
</svg>
