<svg width="62" height="20" viewBox="0 0 62 20" fill="none" xmlns="http://www.w3.org/2000/svg">
<path fill-rule="evenodd" clip-rule="evenodd" d="M46.008 1.13924V18.8608C46.008 19.4899 45.4965 20 44.8657 20C44.2349 20 43.7234 19.4899 43.7234 18.8608V1.13924C43.7234 0.510127 44.2349 0 44.8657 0C45.4965 0 46.008 0.510127 46.008 1.13924ZM6.20834 20C4.22457 20 2.20527 19.4051 0.523576 18.324C-0.00695069 17.9835 -0.159255 17.2785 0.182161 16.7494C0.523576 16.2202 1.23052 16.0683 1.76105 16.4088C2.52384 16.8987 4.11669 17.7215 6.20834 17.7215C8.15784 17.7215 9.51842 17.019 9.51842 16.0126C9.51842 15.0291 8.55129 14.7101 5.82504 14.3038L5.82501 14.3038C3.4351 13.9481 0.160584 13.4607 0.160584 10.3164C0.160584 8.39619 1.93239 6.3291 5.81996 6.3291C7.27066 6.3291 9.37373 6.62657 11.1519 8.04556C11.6443 8.43923 11.7243 9.15568 11.3296 9.64682C10.9349 10.138 10.2165 10.2177 9.72403 9.82404C8.46371 8.81771 6.90513 8.60632 5.81996 8.60632C3.60393 8.60632 2.44515 9.46581 2.44515 10.3152C2.44515 11.3177 3.41863 11.6405 6.16265 12.0494L6.16449 12.0496C8.54409 12.404 11.803 12.8894 11.803 16.0114C11.8043 17.9975 10.0743 20 6.20834 20ZM25.4304 17.5582C25.8366 17.0759 25.7731 16.3582 25.2908 15.9532C24.8085 15.5481 24.0876 15.6114 23.6815 16.0924C22.8095 17.1278 21.534 17.7215 20.181 17.7215C17.6616 17.7215 15.6119 15.6772 15.6119 13.1646C15.6119 10.6519 17.6616 8.60759 20.181 8.60759C21.534 8.60759 22.8095 9.20127 23.6815 10.2367C24.0876 10.719 24.8073 10.781 25.2908 10.3759C25.7744 9.97089 25.8366 9.25316 25.4304 8.77089C24.1232 7.21899 22.2105 6.32911 20.181 6.32911C16.4013 6.32911 13.3273 9.39494 13.3273 13.1646C13.3273 16.9342 16.4013 20 20.181 20C22.2092 20 24.1232 19.1101 25.4304 17.5582ZM40.9312 13.1646V18.8608C40.9312 19.4899 40.4197 20 39.7889 20C39.1581 20 38.6466 19.4899 38.6466 18.8608V13.1646C38.6466 10.6519 36.5969 8.60759 34.0775 8.60759C31.5581 8.60759 29.5084 10.6519 29.5084 13.1646C29.5084 15.6772 31.5581 17.7215 34.0775 17.7215H35.3467C35.9775 17.7215 36.489 18.2316 36.489 18.8608C36.489 19.4899 35.9775 20 35.3467 20H34.0775C30.2978 20 27.2238 16.9342 27.2238 13.1646C27.2238 9.39494 30.2978 6.32911 34.0775 6.32911C37.8572 6.32911 40.9312 9.39494 40.9312 13.1646ZM60.9034 17.5582C61.3095 17.0759 61.2461 16.3582 60.7638 15.9532C60.2802 15.5481 59.5606 15.6114 59.1544 16.0924C58.2825 17.1278 57.0069 17.7215 55.654 17.7215C53.1346 17.7215 51.0848 15.6772 51.0848 13.1646C51.0848 10.6519 53.1346 8.60759 55.654 8.60759C57.6898 8.60759 59.2027 9.96582 59.6075 12.0253H54.3848C53.754 12.0253 53.2425 12.5354 53.2425 13.1646C53.2425 13.7937 53.754 14.3038 54.3848 14.3038H60.8577C61.4885 14.3038 62 13.7937 62 13.1646C62 11.3304 61.3958 9.63418 60.298 8.38608C59.1316 7.05949 57.4829 6.32911 55.6552 6.32911C51.8755 6.32911 48.8015 9.39494 48.8015 13.1646C48.8015 16.9342 51.8755 20 55.6552 20C57.6834 20 59.5961 19.1101 60.9034 17.5582Z" fill="#586371"/>
</svg>
