<svg width="64" height="60" viewBox="0 0 64 60" fill="none" xmlns="http://www.w3.org/2000/svg">
<g clip-path="url(#clip0)">
<path d="M6 39H18V21H6C2.685 21 0 23.685 0 27V33C0 36.315 2.685 39 6 39Z" fill="black"/>
<path d="M55.6052 37.5C59.7452 37.5 63.1052 34.14 63.1052 30C63.1052 25.86 59.7452 22.5 55.6052 22.5V37.5Z" fill="#FD9D52"/>
<path d="M49.6052 0C47.9552 0 46.6052 1.35 46.6052 3V57C46.6052 58.65 47.9552 60 49.6052 60C51.2552 60 52.6052 58.65 52.6052 57V3C52.6052 1.35 51.2702 0 49.6052 0Z" fill="#6A11EA"/>
<path d="M18 27C29.25 27 39.555 22.125 46.605 13.86V3C41.475 13.635 30.615 21 18 21V27Z" fill="#FD9D52"/>
<path d="M18 33V39C30.6 39 41.46 46.365 46.605 57V33H18Z" fill="#DD45D3"/>
<path d="M18 27H6V33H18V27Z" fill="#6A11EA"/>
<path d="M24.9167 57.99L19.0967 42H9.51172L15.7067 59.01C15.9167 59.61 16.4867 60 17.1167 60H23.5067C24.5417 60 25.2617 58.965 24.9167 57.99Z" fill="#6A11EA"/>
</g>
<defs>
<clipPath id="clip0">
<rect width="63.105" height="60" fill="white"/>
</clipPath>
</defs>
</svg>
