<svg width="51" height="60" viewBox="0 0 51 60" fill="none" xmlns="http://www.w3.org/2000/svg">
<g clip-path="url(#clip0)">
<path d="M9.92957 37.4848L6.76457 38.2798L5.96957 41.4448C5.77457 42.1948 4.70957 42.1948 4.51457 41.4448L3.71957 38.2798L0.554569 37.4848C-0.195431 37.2898 -0.195431 36.2248 0.554569 36.0298L3.71957 35.2348L4.51457 32.0698C4.70957 31.3198 5.77457 31.3198 5.96957 32.0698L6.76457 35.2348L9.92957 36.0298C10.6946 36.2098 10.6946 37.2898 9.92957 37.4848Z" fill="black"/>
<path d="M12.75 46.5C13.9926 46.5 15 45.4926 15 44.25C15 43.0074 13.9926 42 12.75 42C11.5074 42 10.5 43.0074 10.5 44.25C10.5 45.4926 11.5074 46.5 12.75 46.5Z" fill="black"/>
<path d="M30.75 23.8048C29.985 23.8048 29.22 23.7598 28.47 23.6698C28.485 23.6698 28.485 23.6698 28.5 23.6698V46.7548L24 51.2548V48.6148V22.6198C22.395 22.0498 20.88 21.3148 19.5 20.3848V48.6148V58.4998C19.5 59.8348 21.12 60.5098 22.065 59.5648L30.75 50.8798L39.435 59.5648C40.38 60.5098 42 59.8348 42 58.4998V48.6148V20.3848C38.775 22.5448 34.92 23.8048 30.75 23.8048Z" fill="#DD45D3"/>
<path d="M26.2341 23.28C26.1891 23.265 26.1591 23.265 26.1141 23.25C26.1591 23.25 26.2041 23.265 26.2341 23.28Z" fill="#DD45D3"/>
<path d="M32.295 0H29.205C28.815 0 28.5 0.315 28.455 0.705C27.945 5.46 22.275 7.815 18.54 4.815C18.225 4.56 17.79 4.56 17.52 4.845L15.33 7.035C15.045 7.32 15.06 7.755 15.3 8.055C18.3 11.79 15.96 17.46 11.19 17.97C10.815 18 10.5 18.315 10.5 18.705V21.795C10.5 22.185 10.815 22.5 11.205 22.545C15.96 23.055 18.315 28.725 15.315 32.46C15.06 32.775 15.06 33.21 15.345 33.48L17.535 35.67C17.82 35.955 18.255 35.94 18.555 35.7C22.29 32.7 27.96 35.04 28.47 39.81C28.5 40.185 28.815 40.5 29.205 40.5H32.295C32.685 40.5 33 40.185 33.045 39.795C33.555 35.04 39.225 32.685 42.96 35.685C43.275 35.94 43.71 35.94 43.98 35.655L46.17 33.465C46.455 33.18 46.44 32.745 46.2 32.445C43.2 28.71 45.54 23.04 50.31 22.53C50.685 22.5 51 22.185 51 21.795V18.705C51 18.315 50.685 18 50.295 17.955C45.54 17.445 43.185 11.775 46.185 8.04C46.44 7.725 46.44 7.29 46.155 7.02L43.965 4.83C43.68 4.545 43.245 4.56 42.945 4.8C39.21 7.8 33.54 5.46 33.03 0.69C33 0.315 32.685 0 32.295 0Z" fill="#6A11EA"/>
<path d="M30.75 31.5C36.9632 31.5 42 26.4632 42 20.25C42 14.0368 36.9632 9 30.75 9C24.5368 9 19.5 14.0368 19.5 20.25C19.5 26.4632 24.5368 31.5 30.75 31.5Z" fill="white"/>
<path d="M30.75 28.5C35.3063 28.5 39 24.8063 39 20.25C39 15.6937 35.3063 12 30.75 12C26.1937 12 22.5 15.6937 22.5 20.25C22.5 24.8063 26.1937 28.5 30.75 28.5Z" fill="#FD9D52"/>
<path d="M30.75 24C32.8211 24 34.5 22.3211 34.5 20.25C34.5 18.1789 32.8211 16.5 30.75 16.5C28.6789 16.5 27 18.1789 27 20.25C27 22.3211 28.6789 24 30.75 24Z" fill="white"/>
</g>
<defs>
<clipPath id="clip0">
<rect width="51" height="60" fill="white"/>
</clipPath>
</defs>
</svg>
