<svg width="60" height="60" viewBox="0 0 60 60" fill="none" xmlns="http://www.w3.org/2000/svg">
<g clip-path="url(#clip0)">
<path d="M9.75 10.5C12.6495 10.5 15 8.1495 15 5.25C15 2.35051 12.6495 0 9.75 0C6.85051 0 4.5 2.35051 4.5 5.25C4.5 8.1495 6.85051 10.5 9.75 10.5Z" fill="black"/>
<path d="M19.4252 23.79L17.9252 16.5C17.5652 14.76 16.0352 13.5 14.2502 13.5H5.25015C3.46515 13.5 1.93515 14.745 1.57515 16.5L0.075154 23.79C-0.149846 24.9 0.135154 26.04 0.840154 26.91C1.42515 27.615 2.23515 28.065 3.12015 28.215L6.00015 42.15C6.30015 43.605 7.44015 44.805 8.97015 45.12C11.0402 45.555 13.0652 44.22 13.5002 42.15L16.3802 28.23C17.2652 28.08 18.0752 27.63 18.6602 26.925C19.3652 26.04 19.6502 24.9 19.4252 23.79Z" fill="#6A11EA"/>
<path d="M50.25 10.5C53.1495 10.5 55.5 8.1495 55.5 5.25C55.5 2.35051 53.1495 0 50.25 0C47.3505 0 45 2.35051 45 5.25C45 8.1495 47.3505 10.5 50.25 10.5Z" fill="black"/>
<path d="M59.9252 23.79L58.4252 16.5C58.0652 14.76 56.5352 13.5 54.7502 13.5H45.7502C43.9652 13.5 42.4352 14.745 42.0752 16.5L40.5752 23.79C40.3502 24.9 40.6352 26.04 41.3402 26.91C41.9252 27.615 42.7352 28.065 43.6202 28.215L46.5002 42.15C46.8002 43.605 47.9402 44.805 49.4702 45.12C51.5402 45.555 53.5652 44.22 54.0002 42.15L56.8801 28.23C57.7651 28.08 58.5751 27.63 59.1601 26.925C59.8651 26.04 60.1502 24.9 59.9252 23.79Z" fill="#FD9D52"/>
<path d="M30 25.29C32.8995 25.29 35.25 22.9395 35.25 20.04C35.25 17.1405 32.8995 14.79 30 14.79C27.1005 14.79 24.75 17.1405 24.75 20.04C24.75 22.9395 27.1005 25.29 30 25.29Z" fill="black"/>
<path d="M39.6752 38.58L38.1752 31.29C37.8152 29.55 36.2852 28.29 34.5002 28.29H25.5002C23.7152 28.29 22.1852 29.535 21.8252 31.29L20.3252 38.58C20.1002 39.69 20.3852 40.83 21.0902 41.7C21.6752 42.405 22.4852 42.855 23.3702 43.005L26.2502 56.925C26.5502 58.38 27.6902 59.58 29.2202 59.895C31.2902 60.33 33.3152 58.995 33.7502 56.925L36.6302 43.005C37.5152 42.855 38.3252 42.405 38.9102 41.7C39.6152 40.83 39.9002 39.69 39.6752 38.58Z" fill="#DD45D3"/>
</g>
<defs>
<clipPath id="clip0">
<rect width="60" height="60" fill="white"/>
</clipPath>
</defs>
</svg>
