<svg width="42" height="60" viewBox="0 0 42 60" fill="none" xmlns="http://www.w3.org/2000/svg">
<path d="M9.49478 33.75L0.164777 56.91C-0.300223 58.065 0.254777 59.37 1.40978 59.835C2.56478 60.3 3.86978 59.745 4.33478 58.59L14.3548 33.75H9.49478Z" fill="#6A11EA"/>
<path d="M41.8347 56.91L32.5047 33.75H27.6597L37.6797 58.59C38.0397 59.46 38.8797 60 39.7647 60C40.0497 60 40.3347 59.94 40.6047 59.835C41.7447 59.37 42.2997 58.065 41.8347 56.91Z" fill="#FD9D52"/>
<path d="M21.0003 9C20.0853 9 19.2603 9.555 18.9153 10.41L10.7103 30.75H15.5553L21.0003 17.265V9Z" fill="black"/>
<path d="M21 0C19.755 0 18.75 1.005 18.75 2.25V11.25H23.25V2.25C23.25 1.005 22.245 0 21 0Z" fill="black"/>
<path d="M21 9C21.915 9 22.74 9.555 23.085 10.41L31.29 30.75H26.445L21 17.265V9Z" fill="#DD45D3"/>
<path d="M21 20.25C24.7279 20.25 27.75 17.2279 27.75 13.5C27.75 9.77208 24.7279 6.75 21 6.75C17.2721 6.75 14.25 9.77208 14.25 13.5C14.25 17.2279 17.2721 20.25 21 20.25Z" fill="#DD45D3"/>
<path d="M21 15.75C22.2426 15.75 23.25 14.7426 23.25 13.5C23.25 12.2574 22.2426 11.25 21 11.25C19.7574 11.25 18.75 12.2574 18.75 13.5C18.75 14.7426 19.7574 15.75 21 15.75Z" fill="white"/>
<path d="M42 36C42 34.755 40.995 33.75 39.75 33.75H2.25C1.005 33.75 0 34.755 0 36C0 37.245 1.005 38.25 2.25 38.25H39.75C40.995 38.25 42 37.245 42 36Z" fill="#6A11EA"/>
<path d="M21 29.25C19.755 29.25 18.75 30.255 18.75 31.5V40.5C18.75 41.745 19.755 42.75 21 42.75C22.245 42.75 23.25 41.745 23.25 40.5V31.5C23.25 30.255 22.245 29.25 21 29.25Z" fill="#DD45D3"/>
</svg>
