<svg width="50" height="60" viewBox="0 0 50 60" fill="none" xmlns="http://www.w3.org/2000/svg">
<g clip-path="url(#clip0)">
<path d="M7.11011 52.6649V59.2499C7.11011 59.6699 7.44011 59.9999 7.86011 59.9999H16.8601C17.2801 59.9999 17.6101 59.6699 17.6101 59.2499V43.6649C17.6101 42.9899 16.8001 42.6599 16.3351 43.1399L7.33511 52.1399C7.20011 52.2749 7.11011 52.4549 7.11011 52.6649Z" fill="#6A11EA"/>
<path d="M43.3351 16.1251L34.3351 25.1251C34.2001 25.2601 34.1101 25.4551 34.1101 25.6501V59.2351C34.1101 59.6552 34.4401 59.9852 34.8601 59.9852H43.8601C44.2801 59.9852 44.6101 59.6552 44.6101 59.2351V16.6501C44.6101 15.9901 43.8001 15.6601 43.3351 16.1251Z" fill="#FD9D52"/>
<path d="M20.6101 39.1649V59.2499C20.6101 59.6699 20.9401 59.9999 21.3601 59.9999H30.3601C30.7801 59.9999 31.1101 59.6699 31.1101 59.2499V30.1649C31.1101 29.4899 30.3001 29.1599 29.8351 29.6399L20.8351 38.6399C20.7001 38.7749 20.6101 38.9549 20.6101 39.1649Z" fill="#DD45D3"/>
<path d="M44.61 0H35.82C35.145 0 34.815 0.81 35.295 1.275L39.315 5.295L0.225 44.4C-0.075 44.7 -0.075 45.165 0.225 45.465L4.47 49.71C4.77 50.01 5.235 50.01 5.535 49.71L44.61 10.605L48.63 14.625C49.095 15.09 49.905 14.76 49.905 14.1V5.31V0.75C49.905 0.33 49.575 0 49.155 0H44.61Z" fill="black"/>
</g>
<defs>
<clipPath id="clip0">
<rect width="49.92" height="60" fill="white"/>
</clipPath>
</defs>
</svg>
